<mxfile host="app.diagrams.net" modified="2023-07-12T08:58:49.832Z" agent="Mozilla/5.0 (Windows NT 10.0; Win64; x64) AppleWebKit/537.36 (KHTML, like Gecko) Chrome/114.0.0.0 Safari/537.36 Edg/114.0.1823.67" version="21.6.1" etag="_tTLE4D4sjI-Req5ODjQ" type="github">
  <diagram name="Page-1" id="D3PAS92dxYV9PlSBzTDx">
    <mxGraphModel>
      <root>
        <mxCell id="0" />
        <mxCell id="1" parent="0" />
      </root>
    </mxGraphModel>
  </diagram>
</mxfile>
